<svg width="226" height="226" viewBox="0 0 226 226" fill="none" xmlns="http://www.w3.org/2000/svg">
<path fill-rule="evenodd" clip-rule="evenodd" d="M94.1667 18.8333C94.1685 16.8695 93.5562 14.9542 92.4155 13.3556C91.2749 11.7569 89.663 10.5549 87.8054 9.91771C85.9478 9.28052 83.9374 9.24005 82.0556 9.80197C80.1739 10.3639 78.5149 11.5001 77.3109 13.0515L11.3942 97.8015C10.1083 99.4545 9.41016 101.489 9.41016 103.583C9.41016 105.678 10.1083 107.712 11.3942 109.365L77.3109 194.115C78.5149 195.667 80.1739 196.803 82.0556 197.365C83.9374 197.927 85.9478 197.886 87.8054 197.249C89.663 196.612 91.2749 195.41 92.4155 193.811C93.5562 192.212 94.1685 190.297 94.1667 188.333V150.761C144.819 151.816 169.152 161.43 181.374 171.882C192.995 181.817 195.123 193.503 197.336 205.745L197.91 208.899C198.333 211.157 199.566 213.182 201.377 214.593C203.188 216.005 205.453 216.707 207.745 216.565C210.037 216.424 212.198 215.45 213.823 213.827C215.447 212.204 216.422 210.043 216.565 207.751C218.175 181.874 215.755 144.376 197.477 113.009C179.736 82.5654 147.785 59.1555 94.1667 56.7072V18.8333Z" fill="#E3FDFD"/>
</svg>
