<svg width="34" height="34" viewBox="0 0 34 34" fill="none" xmlns="http://www.w3.org/2000/svg">
<path d="M4.60215 3.36725L30.1871 15.6036C30.4457 15.7271 30.6641 15.9213 30.817 16.1636C30.9698 16.406 31.051 16.6868 31.051 16.9733C31.051 17.2599 30.9698 17.5406 30.817 17.783C30.6641 18.0254 30.4457 18.2196 30.1871 18.343L4.60215 30.5794C4.33987 30.705 4.04701 30.7527 3.75844 30.7166C3.46986 30.6806 3.19771 30.5624 2.97436 30.3762C2.75101 30.1899 2.58587 29.9434 2.49858 29.666C2.4113 29.3886 2.40554 29.092 2.482 28.8114L5.04172 19.4274C5.07305 19.3124 5.13755 19.2091 5.22716 19.1305C5.31677 19.0519 5.42754 19.0015 5.54565 18.9854L17.9435 17.3012C17.9953 17.2938 18.0444 17.2732 18.0859 17.2413C18.1273 17.2093 18.1599 17.1672 18.1803 17.119L18.2021 17.0438C18.2117 16.976 18.1981 16.9069 18.1635 16.8478C18.1289 16.7888 18.0753 16.7431 18.0115 16.7183L17.9447 16.7001L5.55901 15.0159C5.44111 14.9996 5.33061 14.949 5.24123 14.8704C5.15185 14.7919 5.08754 14.6887 5.05629 14.5739L2.482 5.13647C2.40523 4.8558 2.41075 4.55898 2.49791 4.28137C2.58506 4.00375 2.75018 3.75703 2.97358 3.5706C3.19699 3.38418 3.46928 3.26589 3.75801 3.22984C4.04675 3.19378 4.33976 3.24148 4.60215 3.36725V3.36725Z" fill="white"/>
</svg>
